<svg width="31" height="31" viewBox="0 0 31 31" fill="none" xmlns="http://www.w3.org/2000/svg">
<path d="M11.5125 2.78906L6.98755 7.32656" stroke="#292D32" stroke-width="1.5" stroke-miterlimit="10" stroke-linecap="round" stroke-linejoin="round"/>
<path d="M19.4875 2.78906L24.0125 7.32656" stroke="#292D32" stroke-width="1.5" stroke-miterlimit="10" stroke-linecap="round" stroke-linejoin="round"/>
<path d="M3 10.1016C3 7.78906 4.2375 7.60156 5.775 7.60156H25.225C26.7625 7.60156 28 7.78906 28 10.1016C28 12.7891 26.7625 12.6016 25.225 12.6016H5.775C4.2375 12.6016 3 12.7891 3 10.1016Z" stroke="#292D32" stroke-width="1.5"/>
<path d="M12.7 17.7891V22.2266" stroke="#292D32" stroke-width="1.5" stroke-linecap="round"/>
<path d="M18.45 17.7891V22.2266" stroke="#292D32" stroke-width="1.5" stroke-linecap="round"/>
<path d="M4.875 12.7891L6.6375 23.5891C7.0375 26.0141 8 27.7891 11.575 27.7891H19.1125C23 27.7891 23.575 26.0891 24.025 23.7391L26.125 12.7891" stroke="#292D32" stroke-width="1.5" stroke-linecap="round"/>
</svg>
