<svg width="24" height="25" viewBox="0 0 24 25" fill="none" xmlns="http://www.w3.org/2000/svg">
<path d="M17 18.5355H13L8.54999 21.4954C7.88999 21.9354 7 21.4655 7 20.6655V18.5355C4 18.5355 2 16.5355 2 13.5355V7.5354C2 4.5354 4 2.5354 7 2.5354H17C20 2.5354 22 4.5354 22 7.5354V13.5355C22 16.5355 20 18.5355 17 18.5355Z" stroke="#292D32" stroke-width="1.5" stroke-miterlimit="10" stroke-linecap="round" stroke-linejoin="round"/>
<path d="M12.0001 11.4653V11.2554C12.0001 10.5754 12.4201 10.2154 12.8401 9.92535C13.2501 9.64535 13.66 9.28537 13.66 8.62537C13.66 7.70537 12.9201 6.96533 12.0001 6.96533C11.0801 6.96533 10.3401 7.70537 10.3401 8.62537" stroke="#292D32" stroke-width="1.5" stroke-linecap="round" stroke-linejoin="round"/>
<path d="M11.9955 13.8555H12.0045" stroke="#292D32" stroke-width="1.5" stroke-linecap="round" stroke-linejoin="round"/>
</svg>
