<svg width="31" height="31" viewBox="0 0 31 31" fill="none" xmlns="http://www.w3.org/2000/svg">
<path d="M25.4625 12.7891H5.46252V22.7891C5.46252 26.5391 6.71252 27.7891 10.4625 27.7891H20.4625C24.2125 27.7891 25.4625 26.5391 25.4625 22.7891V12.7891Z" stroke="#292D32" stroke-width="1.5" stroke-miterlimit="10" stroke-linecap="round" stroke-linejoin="round"/>
<path d="M27.375 9.03906V10.2891C27.375 11.6641 26.7125 12.7891 24.875 12.7891H6.125C4.2125 12.7891 3.625 11.6641 3.625 10.2891V9.03906C3.625 7.66406 4.2125 6.53906 6.125 6.53906H24.875C26.7125 6.53906 27.375 7.66406 27.375 9.03906Z" stroke="#292D32" stroke-width="1.5" stroke-miterlimit="10" stroke-linecap="round" stroke-linejoin="round"/>
<path d="M15.05 6.53911H8.14997C7.72497 6.07661 7.73748 5.36411 8.18748 4.91411L9.96248 3.13911C10.425 2.67661 11.1875 2.67661 11.65 3.13911L15.05 6.53911Z" stroke="#292D32" stroke-width="1.5" stroke-miterlimit="10" stroke-linecap="round" stroke-linejoin="round"/>
<path d="M22.8375 6.53911H15.9375L19.3375 3.13911C19.8 2.67661 20.5625 2.67661 21.025 3.13911L22.8 4.91411C23.25 5.36411 23.2625 6.07661 22.8375 6.53911Z" stroke="#292D32" stroke-width="1.5" stroke-miterlimit="10" stroke-linecap="round" stroke-linejoin="round"/>
<path d="M11.675 12.7891V19.2141C11.675 20.2141 12.775 20.8016 13.6125 20.2641L14.7875 19.4891C15.2125 19.2141 15.75 19.2141 16.1625 19.4891L17.275 20.2391C18.1 20.7891 19.2125 20.2016 19.2125 19.2016V12.7891H11.675Z" stroke="#292D32" stroke-width="1.5" stroke-miterlimit="10" stroke-linecap="round" stroke-linejoin="round"/>
</svg>
