<svg width="24" height="25" viewBox="0 0 24 25" fill="none" xmlns="http://www.w3.org/2000/svg">
<path d="M17.98 10.8955V14.8955C17.98 15.1555 17.97 15.4055 17.94 15.6455C17.71 18.3455 16.12 19.6855 13.19 19.6855H12.79C12.54 19.6855 12.3 19.8055 12.15 20.0055L10.95 21.6055C10.42 22.3155 9.56 22.3155 9.03 21.6055L7.82999 20.0055C7.69999 19.8355 7.41 19.6855 7.19 19.6855H6.79001C3.60001 19.6855 2 18.8955 2 14.8955V10.8955C2 7.96548 3.35001 6.37548 6.04001 6.14548C6.28001 6.11548 6.53001 6.10547 6.79001 6.10547H13.19C16.38 6.10547 17.98 7.70548 17.98 10.8955Z" stroke="#292D32" stroke-width="1.5" stroke-miterlimit="10" stroke-linecap="round" stroke-linejoin="round"/>
<path d="M21.98 6.89548V10.8955C21.98 13.8355 20.63 15.4155 17.94 15.6455C17.97 15.4055 17.98 15.1555 17.98 14.8955V10.8955C17.98 7.70548 16.38 6.10547 13.19 6.10547H6.79004C6.53004 6.10547 6.28004 6.11548 6.04004 6.14548C6.27004 3.45548 7.86004 2.10547 10.79 2.10547H17.19C20.38 2.10547 21.98 3.70548 21.98 6.89548Z" stroke="#292D32" stroke-width="1.5" stroke-miterlimit="10" stroke-linecap="round" stroke-linejoin="round"/>
<path d="M13.4955 13.3555H13.5045" stroke="#292D32" stroke-width="2" stroke-linecap="round" stroke-linejoin="round"/>
<path d="M9.9955 13.3555H10.0045" stroke="#292D32" stroke-width="2" stroke-linecap="round" stroke-linejoin="round"/>
<path d="M6.4955 13.3555H6.5045" stroke="#292D32" stroke-width="2" stroke-linecap="round" stroke-linejoin="round"/>
</svg>
