<svg width="24" height="25" viewBox="0 0 24 25" fill="none" xmlns="http://www.w3.org/2000/svg">
<path d="M12 12.1055C14.7614 12.1055 17 9.86689 17 7.10547C17 4.34404 14.7614 2.10547 12 2.10547C9.23858 2.10547 7 4.34404 7 7.10547C7 9.86689 9.23858 12.1055 12 12.1055Z" stroke="#292D32" stroke-width="1.5" stroke-linecap="round" stroke-linejoin="round"/>
<path d="M3.41003 22.1055C3.41003 18.2355 7.26003 15.1055 12 15.1055C12.96 15.1055 13.89 15.2355 14.76 15.4755" stroke="#292D32" stroke-width="1.5" stroke-linecap="round" stroke-linejoin="round"/>
<path d="M22 18.1055C22 18.4255 21.96 18.7355 21.88 19.0355C21.79 19.4355 21.63 19.8255 21.42 20.1655C20.73 21.3255 19.46 22.1055 18 22.1055C16.97 22.1055 16.04 21.7154 15.34 21.0754C15.04 20.8154 14.78 20.5055 14.58 20.1655C14.21 19.5655 14 18.8555 14 18.1055C14 17.0255 14.43 16.0355 15.13 15.3155C15.86 14.5655 16.88 14.1055 18 14.1055C19.18 14.1055 20.25 14.6155 20.97 15.4355C21.61 16.1455 22 17.0855 22 18.1055Z" stroke="#292D32" stroke-width="1.5" stroke-miterlimit="10" stroke-linecap="round" stroke-linejoin="round"/>
<path d="M19.03 17.0454L16.92 19.1554" stroke="#292D32" stroke-width="1.5" stroke-miterlimit="10" stroke-linecap="round" stroke-linejoin="round"/>
<path d="M16.9401 17.0654L19.0601 19.1754" stroke="#292D32" stroke-width="1.5" stroke-miterlimit="10" stroke-linecap="round" stroke-linejoin="round"/>
</svg>
