<svg width="49" height="49" viewBox="0 0 49 49" fill="none" xmlns="http://www.w3.org/2000/svg">
<path d="M6.5 44.4813V4.5813L9.5 7.5813L12.5 4.5813L15.5 7.5813L18.5 4.5813L21.5 7.5813L24.5 4.5813L27.5 7.5813L30.5 4.5813L33.5 7.5813L36.5 4.5813L39.5 7.5813L42.5 4.5813V44.4813L39.5 41.4813L36.5 44.4813L33.5 41.4813L30.5 44.4813L27.5 41.4813L24.5 44.4813L21.5 41.4813L18.5 44.4813L15.5 41.4813L12.5 44.4813L9.5 41.4813L6.5 44.4813ZM12.35 33.7313H36.85V30.7313H12.35V33.7313ZM12.35 26.0313H36.85V23.0313H12.35V26.0313ZM12.35 18.2813H36.85V15.2813H12.35V18.2813ZM9.5 39.4313H39.5V9.6313H9.5V39.4313ZM9.5 9.6313V39.4313V9.6313Z" fill="#FF0000"/>
</svg>
