<svg width="24" height="25" viewBox="0 0 24 25" fill="none" xmlns="http://www.w3.org/2000/svg">
<path d="M24 12.4336C24 5.80617 18.6274 0.433594 12 0.433594C5.37258 0.433594 0 5.80617 0 12.4336C0 18.4231 4.38825 23.3876 10.125 24.2878V15.9023H7.07812V12.4336H10.125V9.78984C10.125 6.78234 11.9165 5.12109 14.6576 5.12109C15.9705 5.12109 17.3438 5.35547 17.3438 5.35547V8.30859H15.8306C14.3399 8.30859 13.875 9.23358 13.875 10.1826V12.4336H17.2031L16.6711 15.9023H13.875V24.2878C19.6118 23.3876 24 18.4231 24 12.4336Z" fill="#1877F2"/>
<path d="M16.6711 15.9023L17.2031 12.4336H13.875V10.1826C13.875 9.23358 14.3399 8.30859 15.8306 8.30859H17.3438V5.35547C17.3438 5.35547 15.9705 5.12109 14.6576 5.12109C11.9165 5.12109 10.125 6.78234 10.125 9.78984V12.4336H7.07812V15.9023H10.125V24.2878C10.7359 24.3837 11.3621 24.4336 12 24.4336C12.6379 24.4336 13.264 24.3837 13.875 24.2878V15.9023H16.6711Z" fill="white"/>
</svg>
