<svg width="24" height="25" viewBox="0 0 24 25" fill="none" xmlns="http://www.w3.org/2000/svg">
<g clip-path="url(#clip0_5_3294)">
<path d="M12 24.4336C5.3736 24.4336 0 19.06 0 12.4336C0 5.80719 5.3736 0.433594 12 0.433594C18.6264 0.433594 24 5.80719 24 12.4336C24 19.06 18.6264 24.4336 12 24.4336Z" fill="url(#paint0_linear_5_3294)"/>
<path d="M12 5.71843C14.1864 5.71843 14.4456 5.72563 15.3096 5.76643C16.1088 5.80243 16.5432 5.93683 16.8312 6.04963C17.2128 6.19843 17.4864 6.37603 17.772 6.66163C18.0576 6.94723 18.2352 7.22083 18.384 7.60243C18.4968 7.89043 18.6288 8.32483 18.6672 9.12403C18.7056 9.98803 18.7152 10.2472 18.7152 12.4336C18.7152 14.62 18.708 14.8792 18.6672 15.7432C18.6312 16.5424 18.4968 16.9768 18.384 17.2648C18.2352 17.6464 18.0576 17.92 17.772 18.2056C17.4864 18.4912 17.2128 18.6688 16.8312 18.8176C16.5432 18.9304 16.1088 19.0624 15.3096 19.1008C14.4456 19.1392 14.1864 19.1488 12 19.1488C9.81361 19.1488 9.55441 19.1416 8.6904 19.1008C7.8912 19.0648 7.4568 18.9304 7.1688 18.8176C6.7872 18.6688 6.5136 18.4912 6.228 18.2056C5.9424 17.92 5.7648 17.6464 5.616 17.2648C5.5032 16.9768 5.3712 16.5424 5.3328 15.7432C5.2944 14.8792 5.2848 14.62 5.2848 12.4336C5.2848 10.2472 5.292 9.98803 5.3328 9.12403C5.3688 8.32483 5.5032 7.89043 5.616 7.60243C5.7648 7.22083 5.9424 6.94723 6.228 6.66163C6.5136 6.37603 6.7872 6.19843 7.1688 6.04963C7.4568 5.93683 7.8912 5.80483 8.6904 5.76643C9.55441 5.72563 9.81361 5.71843 12 5.71843ZM12 4.24243C9.77521 4.24243 9.4968 4.25203 8.6232 4.29283C7.752 4.33363 7.1568 4.47043 6.6336 4.67443C6.096 4.88083 5.6376 5.16163 5.184 5.61763C4.728 6.07363 4.4496 6.52963 4.2384 7.06963C4.0368 7.59043 3.8976 8.18563 3.8568 9.05923C3.816 9.93283 3.8064 10.2112 3.8064 12.436C3.8064 14.6608 3.816 14.9392 3.8568 15.8128C3.8976 16.684 4.0344 17.2792 4.2384 17.8024C4.4472 18.3376 4.728 18.796 5.184 19.2496C5.64 19.7056 6.096 19.984 6.636 20.1952C7.1568 20.3968 7.752 20.536 8.6256 20.5768C9.4992 20.6176 9.77761 20.6272 12.0024 20.6272C14.2272 20.6272 14.5056 20.6176 15.3792 20.5768C16.2504 20.536 16.8456 20.3992 17.3688 20.1952C17.904 19.9864 18.3624 19.7056 18.816 19.2496C19.272 18.7936 19.5504 18.3376 19.7616 17.7976C19.9632 17.2768 20.1024 16.6816 20.1432 15.808C20.184 14.9344 20.1936 14.656 20.1936 12.4312C20.1936 10.2064 20.184 9.92803 20.1432 9.05443C20.1024 8.18323 19.9656 7.58803 19.7616 7.06483C19.5528 6.52963 19.272 6.07123 18.816 5.61763C18.36 5.16163 17.904 4.88323 17.364 4.67203C16.8432 4.47043 16.248 4.33123 15.3744 4.29043C14.5032 4.25203 14.2248 4.24243 12 4.24243Z" fill="white"/>
<path d="M12 8.22644C9.67685 8.22644 7.79285 10.1104 7.79285 12.4336C7.79285 14.7568 9.67685 16.6408 12 16.6408C14.3232 16.6408 16.2072 14.7568 16.2072 12.4336C16.2072 10.1104 14.3232 8.22644 12 8.22644ZM12 15.1648C10.4928 15.1648 9.26885 13.9432 9.26885 12.4336C9.26885 10.924 10.4928 9.70244 12 9.70244C13.5072 9.70244 14.7312 10.924 14.7312 12.4336C14.7312 13.9432 13.5072 15.1648 12 15.1648Z" fill="white"/>
<path d="M16.3728 9.04478C16.9162 9.04478 17.3568 8.60423 17.3568 8.06078C17.3568 7.51733 16.9162 7.07678 16.3728 7.07678C15.8293 7.07678 15.3888 7.51733 15.3888 8.06078C15.3888 8.60423 15.8293 9.04478 16.3728 9.04478Z" fill="white"/>
</g>
<defs>
<linearGradient id="paint0_linear_5_3294" x1="3.51472" y1="20.9189" x2="20.4853" y2="3.94831" gradientUnits="userSpaceOnUse">
<stop stop-color="#FFD521"/>
<stop offset="0.0551048" stop-color="#FFD020"/>
<stop offset="0.1241" stop-color="#FEC01E"/>
<stop offset="0.2004" stop-color="#FCA71B"/>
<stop offset="0.2821" stop-color="#FA8316"/>
<stop offset="0.3681" stop-color="#F85510"/>
<stop offset="0.4563" stop-color="#F51E09"/>
<stop offset="0.5" stop-color="#F30005"/>
<stop offset="0.5035" stop-color="#F20007"/>
<stop offset="0.5966" stop-color="#E1003B"/>
<stop offset="0.6879" stop-color="#D30067"/>
<stop offset="0.7757" stop-color="#C70088"/>
<stop offset="0.8589" stop-color="#BF00A0"/>
<stop offset="0.9357" stop-color="#BB00AF"/>
<stop offset="1" stop-color="#B900B4"/>
</linearGradient>
<clipPath id="clip0_5_3294">
<rect width="24" height="24" fill="white" transform="translate(0 0.433594)"/>
</clipPath>
</defs>
</svg>
