<svg width="24" height="25" viewBox="0 0 24 25" fill="none" xmlns="http://www.w3.org/2000/svg">
<path d="M12 0.433594C5.373 0.433594 0 5.80659 0 12.4336C0 19.0606 5.373 24.4336 12 24.4336C18.627 24.4336 24 19.0606 24 12.4336C24 5.80659 18.627 0.433594 12 0.433594ZM18.066 10.0786C18.249 14.1186 15.236 18.6226 9.902 18.6226C8.28 18.6226 6.771 18.1466 5.5 17.3316C7.024 17.5116 8.545 17.0876 9.752 16.1426C8.496 16.1196 7.435 15.2886 7.068 14.1476C7.519 14.2336 7.963 14.2086 8.366 14.0986C6.985 13.8206 6.031 12.5766 6.062 11.2456C6.45 11.4606 6.892 11.5896 7.363 11.6046C6.084 10.7496 5.722 9.06059 6.474 7.76959C7.89 9.50759 10.007 10.6506 12.394 10.7706C11.975 8.97459 13.338 7.24359 15.193 7.24359C16.018 7.24359 16.765 7.59259 17.289 8.15059C17.943 8.02259 18.559 7.78259 19.113 7.45359C18.898 8.12459 18.443 8.68659 17.85 9.04259C18.431 8.97259 18.985 8.81859 19.499 8.58959C19.115 9.16759 18.629 9.67359 18.066 10.0786Z" fill="#00ACEE"/>
</svg>
