<svg width="24" height="25" viewBox="0 0 24 25" fill="none" xmlns="http://www.w3.org/2000/svg">
<g clip-path="url(#clip0_5_3286)">
<path d="M12 24.4336C5.3736 24.4336 0 19.06 0 12.4336C0 5.80719 5.3736 0.433594 12 0.433594C18.6264 0.433594 24 5.80719 24 12.4336C24 19.06 18.6264 24.4336 12 24.4336Z" fill="#25D366"/>
<path fill-rule="evenodd" clip-rule="evenodd" d="M17.6136 6.84644C16.1256 5.35604 14.1432 4.53524 12.0336 4.53284C7.68719 4.53284 4.1472 8.07044 4.1472 12.4192C4.1472 13.8088 4.5096 15.1672 5.2008 16.3624L4.0824 20.4496L8.26319 19.3528C9.41519 19.9816 10.7112 20.3128 12.0312 20.3128H12.0336C16.38 20.3128 19.9176 16.7752 19.92 12.4264C19.9224 10.3192 19.104 8.33684 17.6136 6.84644ZM12.036 18.9808H12.0336C10.8576 18.9808 9.70319 18.664 8.69759 18.0664L8.45759 17.9248L5.97599 18.5752L6.63839 16.156L6.48239 15.9088C5.82719 14.8648 5.4792 13.66 5.4792 12.4192C5.4816 8.80484 8.42159 5.86484 12.0384 5.86484C13.7904 5.86484 15.4344 6.54884 16.6728 7.78724C17.9112 9.02564 18.5928 10.6744 18.5904 12.424C18.5904 16.0408 15.648 18.9808 12.036 18.9808ZM15.6312 14.0704C15.4344 13.972 14.4648 13.4944 14.2848 13.4296C14.1048 13.3648 13.9728 13.3312 13.8408 13.528C13.7088 13.7248 13.332 14.1688 13.2168 14.3008C13.1016 14.4328 12.9864 14.4496 12.7896 14.3512C12.5928 14.2528 11.9568 14.044 11.2056 13.372C10.62 12.8488 10.224 12.2032 10.1088 12.0064C9.99359 11.8096 10.0968 11.7016 10.1952 11.6032C10.284 11.5144 10.392 11.3728 10.4904 11.2576C10.5888 11.1424 10.6224 11.0608 10.6872 10.9288C10.752 10.7968 10.7208 10.6816 10.6704 10.5832C10.62 10.4848 10.2264 9.51524 10.0632 9.11924C9.90239 8.73524 9.74159 8.78804 9.61919 8.78084C9.50399 8.77604 9.37199 8.77364 9.24239 8.77364C9.11039 8.77364 8.89679 8.82404 8.71679 9.02084C8.53679 9.21764 8.02799 9.69524 8.02799 10.6648C8.02799 11.6344 8.73359 12.5728 8.83199 12.7024C8.93039 12.8344 10.2216 14.824 12.1992 15.6784C12.6696 15.8824 13.0368 16.0024 13.3224 16.0936C13.7952 16.2448 14.2248 16.2232 14.5632 16.1728C14.9424 16.1152 15.7296 15.6952 15.8928 15.2368C16.056 14.776 16.056 14.3824 16.008 14.3008C15.96 14.2192 15.828 14.1712 15.6312 14.0704Z" fill="white"/>
</g>
<defs>
<clipPath id="clip0_5_3286">
<rect width="24" height="24" fill="white" transform="translate(0 0.433594)"/>
</clipPath>
</defs>
</svg>
