<svg width="24" height="25" viewBox="0 0 24 25" fill="none" xmlns="http://www.w3.org/2000/svg">
<g clip-path="url(#clip0_5_3310)">
<path d="M11.2106 22.7109C11.4114 22.7109 11.6038 22.6818 11.7878 22.6234C11.9718 22.5651 12.1475 22.4526 12.3148 22.2859L21.7248 12.9109C21.8921 12.7443 22.005 12.5693 22.0635 12.3859C22.1221 12.2026 22.1514 12.0109 22.1514 11.8109V4.21094C22.1514 3.7776 22.0092 3.41927 21.7248 3.13594C21.4404 2.8526 21.0807 2.71094 20.6458 2.71094H13.0174C12.8166 2.71094 12.6159 2.7401 12.4151 2.79844C12.2144 2.85677 12.0304 2.96927 11.8631 3.13594L2.50324 12.4609C2.16866 12.7943 2.00137 13.1651 2.00137 13.5734C2.00137 13.9818 2.16866 14.3526 2.50324 14.6859L10.1316 22.2859C10.2655 22.4193 10.4286 22.5234 10.621 22.5984C10.8133 22.6734 11.0099 22.7109 11.2106 22.7109ZM18.011 8.11094C17.6596 8.11094 17.3543 7.98177 17.095 7.72344C16.8357 7.4651 16.7061 7.16094 16.7061 6.81094C16.7061 6.46094 16.8357 6.15677 17.095 5.89844C17.3543 5.6401 17.6596 5.51094 18.011 5.51094C18.3623 5.51094 18.6676 5.6401 18.9269 5.89844C19.1862 6.15677 19.3158 6.46094 19.3158 6.81094C19.3158 7.16094 19.1862 7.4651 18.9269 7.72344C18.6676 7.98177 18.3623 8.11094 18.011 8.11094Z" fill="#0D60E9"/>
</g>
<defs>
<clipPath id="clip0_5_3310">
<rect width="24" height="24" fill="white" transform="translate(0.000976562 0.710938)"/>
</clipPath>
</defs>
</svg>
